
        <svg xmlns="http://www.w3.org/2000/svg" xmlns:xlink="http://www.w3.org/1999/xlink" version="1.1" width="3162.2083096186684" 
        height="862.5320120151146" viewBox="0 0 3162.2083096186684 862.5320120151146">
			
			<g transform="scale(8.11041548093341) translate(10, 10)">
				<defs id="SvgjsDefs11979"></defs><g id="SvgjsG11980" featureKey="G09qjj-0" transform="matrix(5.756579290487284,0,0,5.756579290487284,-0.016297202450340817,-0.020107022753776474)" fill="#000000"><title xmlns="http://www.w3.org/2000/svg">Stack</title><g xmlns="http://www.w3.org/2000/svg" stroke="none" stroke-width="1" fill="none" fill-rule="evenodd"><path d="M14.1788666,7.63541346 L14.2600789,7.67474641 L15.7600789,8.57474641 C16.056776,8.75276463 16.0815007,9.16176499 15.8342532,9.37828024 L15.7600789,9.43223934 L8.26007894,13.9322393 C8.12812794,14.0114099 7.96876572,14.024605 7.82767764,13.9718246 L7.74558318,13.9322393 L0.245583183,9.43223934 C-0.0511138556,9.25422111 -0.0758386088,8.84522075 0.171408923,8.62870551 L0.245583183,8.57474641 L1.74558318,7.67474641 C1.98237332,7.53267233 2.28950344,7.60945486 2.43157752,7.84624499 C2.55786559,8.05672511 2.51122992,8.32278251 2.33300205,8.47909102 L2.26007894,8.53223934 L1.47412624,9.00300933 L8.00212624,12.9200093 L14.5301262,9.00300933 L13.7455832,8.53223934 C13.5351031,8.40595126 13.4510487,8.14924854 13.5347516,7.92745732 L13.5740846,7.84624499 C13.7003727,7.63576488 13.9570754,7.55171052 14.1788666,7.63541346 Z M7.74558318,0.0747464094 C7.90392438,-0.0202583068 8.10173774,-0.0202583068 8.26007894,0.0747464094 L8.26007894,0.0747464094 L15.7600789,4.57474641 C16.0837484,4.76894811 16.0837484,5.23803764 15.7600789,5.43223934 L15.7600789,5.43223934 L8.26007894,9.93223934 C8.10173774,10.0272441 7.90392438,10.0272441 7.74558318,9.93223934 L7.74558318,9.93223934 L0.245583183,5.43223934 C-0.0780863137,5.23803764 -0.0780863137,4.76894811 0.245583183,4.57474641 L0.245583183,4.57474641 Z M8.00212624,1.08600933 L1.47412624,5.00300933 L8.00212624,8.92000933 L14.5301262,5.00300933 L8.00212624,1.08600933 Z" fill="#000000" fill-rule="nonzero"></path></g></g><g id="SvgjsG11981" featureKey="0yvIkK-0" transform="matrix(3.2406974891134857,0,0,3.2406974891134857,106.49081488662107,-2.7960476002571895)" fill="#000000"><path d="M10.1 18.28 l0.12 1.72 l-8.52 0 l0 -14 l8.12 0 l0.14 1.72 l-6.46 0 l0 3.42 l4.38 0 l0 1.72 l-4.38 0 l0 5.42 l6.6 0 z M12.040000000000001 18.54 c0.88 0.82 2.7 1.66 4.52 1.66 c2.8 0 4.58 -1.44 4.58 -3.7 c0 -1.84 -0.88 -2.92 -3.92 -4.64 c-2.32 -1.34 -2.88 -1.78 -2.88 -2.66 c0 -0.94 0.88 -1.68 2.36 -1.68 c0.86 0 2 0.38 2.66 0.8 l0.96 -1.44 c-0.94 -0.62 -2.42 -1.08 -3.6 -1.08 c-2.58 0 -4.3 1.48 -4.3 3.42 c0 1.72 0.86 2.58 3.5 4.02 c2.34 1.28 3.3 2.22 3.3 3.24 c0 1.2 -1.04 1.92 -2.66 1.92 c-1.4 0 -2.8 -0.66 -3.5 -1.3 z M37.54 13 c0 2.66 -1.4 4.96 -3.52 6.22 l1.6 1.94 l-1.98 0 l-1.06 -1.3 c-0.7 0.22 -1.44 0.34 -2.22 0.34 c-4 0 -7.18 -3.2 -7.18 -7.2 s3.18 -7.2 7.18 -7.2 s7.18 3.2 7.18 7.2 z M30.36 18.48 c0.36 0 0.7 -0.04 1.02 -0.1 l-1.64 -2 l1.94 0 l1.22 1.48 c1.68 -0.9 2.78 -2.72 2.78 -4.86 c0 -3.1 -2.28 -5.48 -5.32 -5.48 c-3.06 0 -5.34 2.38 -5.34 5.48 s2.28 5.48 5.34 5.48 z M40.24 14.46 l0 -8.46 l1.8 0 l0 8.32 c0 2.7 1.56 4.08 3.76 4.08 s3.78 -1.38 3.78 -4.08 l0 -8.32 l1.78 0 l0 8.46 c0 3.64 -2.08 5.74 -5.56 5.74 c-3.46 0 -5.56 -2.1 -5.56 -5.74 z M54.620000000000005 20 l0 -14 l1.8 0 l0 14 l-1.8 0 z M69.98 11.06 c0 2.26 -1.06 4.2 -3.24 4.84 l3.02 4.1 l-2.16 0 l-2.86 -3.88 l-3.14 0 l0 3.88 l-1.8 0 l0 -14 l5.28 0 c3.3 0 4.9 2.28 4.9 5.06 z M61.6 7.68 l0 6.74 l3.4 0 c2.26 0 3.18 -1.66 3.18 -3.36 s-0.92 -3.38 -3.18 -3.38 l-3.4 0 z M81.16 18.28 l0.12 1.72 l-8.52 0 l0 -14 l8.12 0 l0.14 1.72 l-6.46 0 l0 3.42 l4.38 0 l0 1.72 l-4.38 0 l0 5.42 l6.6 0 z"></path></g>
			</g>
		</svg>
	